<?xml version="1.0" encoding="UTF-8"?>
<!DOCTYPE svg PUBLIC "-//W3C//DTD SVG 1.1//EN" "http://www.w3.org/Graphics/SVG/1.1/DTD/svg11.dtd">
<svg xmlns="http://www.w3.org/2000/svg" version="1.1" width="400px" height="400px" style="shape-rendering:geometricPrecision; text-rendering:geometricPrecision; image-rendering:optimizeQuality; fill-rule:evenodd; clip-rule:evenodd" xmlns:xlink="http://www.w3.org/1999/xlink">
<g><path style="opacity:0.994" fill="#000000" d="M 399.5,179.5 C 399.5,192.833 399.5,206.167 399.5,219.5C 387.579,297.917 344.913,352.084 271.5,382C 193.17,408.007 122.837,394.341 60.5,341C 26.1937,307.554 5.86035,267.054 -0.5,219.5C -0.5,206.167 -0.5,192.833 -0.5,179.5C 11.2552,102.479 52.9219,48.6453 124.5,18C 188.602,-4.98899 249.935,0.677679 308.5,35C 360.461,69.3955 390.794,117.562 399.5,179.5 Z"/></g>
<g><path style="opacity:1" fill="#fbfbfb" d="M 168.5,82.5 C 176.528,82.169 184.528,82.5023 192.5,83.5C 215.57,144.381 238.237,205.381 260.5,266.5C 252.5,266.5 244.5,266.5 236.5,266.5C 224.639,233.42 212.472,200.42 200,167.5C 187.13,199.917 174.797,232.584 163,265.5C 154.912,266.648 146.746,266.815 138.5,266C 155.13,222.61 171.463,179.11 187.5,135.5C 181.363,117.756 175.03,100.09 168.5,82.5 Z"/></g>
</svg>
